<?xml version="1.0" encoding="utf-8"?>
<!-- Generator: Adobe Illustrator 23.0.3, SVG Export Plug-In . SVG Version: 6.00 Build 0)  -->
<svg version="1.1" id="Capa_1" xmlns="http://www.w3.org/2000/svg" xmlns:xlink="http://www.w3.org/1999/xlink" x="0px" y="0px"
	 viewBox="0 0 2000 745.4" style="enable-background:new 0 0 2000 745.4;" xml:space="preserve">
<style type="text/css">
	.st0{fill:#FFFFFF;}
</style>
<g>
	<path class="st0" d="M0,393.1h43.4v345.1H0V393.1z"/>
	<path class="st0" d="M87.3,621.4h42.5c5.8,58.4,41.5,88.8,106.7,88.8c47.8,0,82-21.7,82-64.7c0-47.3-41.5-58.4-103.3-71.9
		c-60.8-13.5-112.9-30.9-112.9-96c0-56.9,47.3-91.2,117.3-91.2c86.4,0,122.1,43.9,130.8,107.6h-41c-6.3-49.2-38.1-73.8-88.8-73.8
		c-46.8,0-77.7,19.8-77.7,55.5c0,39.1,38.6,50.7,90.2,60.8c67.1,13.5,128.4,29.9,128.4,107.6c0,64.7-52.6,100.9-126.9,100.9
		C137.5,745,91.2,690.9,87.3,621.4z"/>
	<path class="st0" d="M389.5,621.4h42.5c5.8,58.4,41.5,88.8,106.7,88.8c47.8,0,82-21.7,82-64.7c0-47.3-41.5-58.4-103.3-71.9
		c-60.8-13.5-112.9-30.9-112.9-96c0-56.9,47.3-91.2,117.3-91.2c86.4,0,122.1,43.9,130.8,107.6h-41c-6.3-49.2-38.1-73.8-88.8-73.8
		c-46.8,0-77.7,19.8-77.7,55.5c0,39.1,38.6,50.7,90.2,60.8c67.1,13.5,128.4,29.9,128.4,107.6c0,64.7-52.6,100.9-126.9,100.9
		C439.6,745,393.3,690.9,389.5,621.4z"/>
	<path class="st0" d="M714.2,393.1h43.4v345.1h-43.4V393.1z"/>
	<path class="st0" d="M810.3,565.4c0-103.3,64.7-180,168.9-180s168.9,76.7,168.9,180c0,103.3-64.7,180-168.9,180
		S810.3,668.7,810.3,565.4z M1103.7,565.4c0-81.1-43.4-142.4-124.5-142.4s-124.5,61.3-124.5,142.4s43.4,141.9,124.5,141.9
		S1103.7,646.5,1103.7,565.4z"/>
	<path class="st0" d="M1199.7,393.1h45.8L1402.9,633c11.6,17.9,25.1,44.4,25.1,44.4h1V393.1h40.5v345.1h-44.4l-158.3-240.3
		c-11.1-16.9-25.6-43-25.6-43h-1v283.3h-40.5V393.1z"/>
	<path class="st0" d="M1512.5,621.4h42.5c5.8,58.4,41.5,88.8,106.7,88.8c47.8,0,82-21.7,82-64.7c0-47.3-41.5-58.4-103.3-71.9
		c-60.8-13.5-112.9-30.9-112.9-96c0-56.9,47.3-91.2,117.3-91.2c86.4,0,122.1,43.9,130.8,107.6h-41c-6.3-49.2-38.1-73.8-88.8-73.8
		c-46.8,0-77.7,19.8-77.7,55.5c0,39.1,38.6,50.7,90.2,60.8c67.1,13.5,128.4,29.9,128.4,107.6c0,64.7-52.6,100.9-126.9,100.9
		C1562.7,745,1516.3,690.9,1512.5,621.4z"/>
</g>
<g>
	<path class="st0" d="M83.1,6.8h273.2v38.1H241.4v306.9H198V44.9H83.1V6.8z"/>
	<path class="st0" d="M399.2,6.8h161.2c60.8,0,101.8,38.1,101.8,94.6c0,42-18.3,71.9-59.8,85.4v1.4c35.2,12.5,46.3,36.7,49.7,87.8
		c3.9,55.5,9.7,69.5,15.9,73.8v1.9h-46.8c-7.2-6.3-8.7-19.3-12.5-77.2c-3.4-50.7-23.6-68.5-70-68.5h-96v145.7h-43.4V6.8z
		 M442.6,170.8H545c48.3,0,72.4-24.1,72.4-63.2c0-42-19.3-63.2-70-63.2H442.6V170.8z"/>
	<path class="st0" d="M814.2,6.8H863l127.4,345.1h-47.3l-36.7-105.2H768.9l-37.2,105.2h-44.4L814.2,6.8z M781.4,211.4h112.9
		L854.8,95.6c-6.8-19.3-15.4-48.7-15.4-48.7h-1c0,0-9.2,29-15.9,48.7L781.4,211.4z"/>
	<path class="st0" d="M1027.6,6.8h45.8l157.3,239.9c11.6,17.9,25.1,44.4,25.1,44.4h1V6.8h40.5v345.1h-44.4l-158.3-240.3
		c-11.1-16.9-25.6-43-25.6-43h-1v283.3h-40.5V6.8z"/>
	<path class="st0" d="M1340.3,235h42.5c5.8,58.4,41.5,88.8,106.7,88.8c47.8,0,82-21.7,82-64.7c0-47.3-41.5-58.4-103.3-71.9
		c-60.8-13.5-112.9-30.9-112.9-96c0-56.9,47.3-91.2,117.3-91.2c86.4,0,122.1,43.9,130.8,107.6h-41c-6.3-49.2-38.1-73.8-88.8-73.8
		c-46.8,0-77.7,19.8-77.7,55.5c0,39.1,38.6,50.7,90.2,60.8c67.1,13.5,128.4,29.9,128.4,107.6c0,64.7-52.6,100.9-126.9,100.9
		C1390.5,358.6,1344.1,304.5,1340.3,235z"/>
	<path class="st0" d="M1664.1,6.8h55.5l112,286.7h1l111-286.7h56.5v345.1h-41.5V68h-1c0,0-9.2,27-15.4,43.4l-94.6,240.3h-33.3
		l-94.6-240.3c-6.8-17.4-15.4-43.4-15.4-43.4h-1v283.8h-39.1V6.8z"/>
</g>
</svg>
